# Made in Blockbench 4.12.4
mtllib pawn.mtl

o pawn
v 0 0.0625 0
v 0 0.5625 0
v 0.103553125 0.0625 0.25
v 0.25 0.0625 0.103553125
v 0.25 0.0625 -0.103553125
v 0.103553125 0.0625 -0.25
v -0.103553125 0.0625 -0.25
v -0.25 0.0625 -0.103553125
v -0.25 0.0625 0.103553125
v -0.103553125 0.0625 0.25
v 0 0.375 0
v 0 0.75 0
v 0.0549175 0.6950825 0.1325825
v 0.077665 0.5625 0.1875
v 0.0549175 0.4299175 0.1325825
v 0.1325825 0.6950825 0.0549175
v 0.1875 0.5625 0.077665
v 0.1325825 0.4299175 0.0549175
v 0.1325825 0.6950825 -0.0549175
v 0.1875 0.5625 -0.077665
v 0.1325825 0.4299175 -0.0549175
v 0.0549175 0.6950825 -0.1325825
v 0.077665 0.5625 -0.1875
v 0.0549175 0.4299175 -0.1325825
v -0.0549175 0.6950825 -0.1325825
v -0.077665 0.5625 -0.1875
v -0.0549175 0.4299175 -0.1325825
v -0.1325825 0.6950825 -0.0549175
v -0.1875 0.5625 -0.077665
v -0.1325825 0.4299175 -0.0549175
v -0.1325825 0.6950825 0.0549175
v -0.1875 0.5625 0.077665
v -0.1325825 0.4299175 0.0549175
v -0.0549175 0.6950825 0.1325825
v -0.077665 0.5625 0.1875
v -0.0549175 0.4299175 0.1325825
vt 0.25 0.895528125
vt 0.17677500000000002 0.96875
vt 0.125 0.84375
vt 0.24192612033427044 0.6095977346154986
vt 0.34375 0.5907352203641714
vt 0.3437499999999999 0.875
vt 0.25 0.7919750000000001
vt 0.25 0.895528125
vt 0.125 0.84375
vt 0.5740910309526754 0.20334606479924822
vt 0.6759089690473246 0.1844857895585682
vt 0.6759089690473246 0.46875
vt 0.176778125 0.71875
vt 0.25 0.7919750000000001
vt 0.125 0.84375
vt 0 0.4220977346154986
vt 0.10182387966572956 0.40323522036417137
vt 0.10182387966572948 0.6875
vt 0.07322500000000003 0.71875
vt 0.176778125 0.71875
vt 0.125 0.84375
vt 0.1678394945883271 0.297096633977038
vt 0.2696605054116729 0.2782357895585682
vt 0.26966050541167286 0.5625
vt 1.3877787807814457e-17 0.791971875
vt 0.07322500000000003 0.71875
vt 0.125 0.84375
vt 0.3356761203342704 0.4220977346154986
vt 0.4375 0.40323522036417137
vt 0.4374999999999999 0.6875
vt 0 0.895525
vt 0 0.791971875
vt 0.125 0.84375
vt 0.5740894945883271 0.734596633977038
vt 0.6759105054116729 0.7157357895585682
vt 0.6759105054116729 1
vt 0.073221875 0.96875
vt 0 0.895525
vt 0.125 0.84375
vt 0.40625 0.7345977346154986
vt 0.5080738796657296 0.7157352203641714
vt 0.5080738796657295 1
vt 0.17677500000000002 0.96875
vt 0.073221875 0.96875
vt 0.125 0.84375
vt 0.4803394945883271 0.422096633977038
vt 0.5821605054116729 0.4032357895585682
vt 0.5821605054116729 0.6875
vt 0.6608218303738459 0.65625
vt 0.6288143357177357 0.6116227730258581
vt 0.703125 0.5921175584260424
vt 0.027459375 0.25
vt 0.016087500000000005 0.1875
vt 0.09375 0.1875
vt 0.082378125 0.25
vt 0.7348375 0.1875
vt 0.746209375 0.125
vt 0.801128125 0.125
vt 0.8125 0.1875
vt 0.31631433571773576 0.2321272269741419
vt 0.34832183037384595 0.1875
vt 0.39062500000000006 0.2516324415739576
vt 0.6288143357177357 0.6116227730258581
vt 0.6347780442484289 0.5570287872570626
vt 0.703125 0.5921175584260424
vt 0.738165625 0.8125
vt 0.72679375 0.75
vt 0.80445625 0.75
vt 0.793084375 0.8125
vt 0.72679375 0.375
vt 0.738165625 0.3125
vt 0.793084375 0.3125
vt 0.80445625 0.375
vt 0.3222780442484289 0.2867212127429374
vt 0.31631433571773576 0.2321272269741419
vt 0.390625 0.2516324415739576
vt 0.6347780442484289 0.5570287872570626
vt 0.675665625 0.5203644334260424
vt 0.703125 0.5921175584260424
vt 0.823871875 0.71875
vt 0.8125 0.65625
vt 0.8901625 0.65625
vt 0.8787906249999999 0.71875
vt 0 0.15625
vt 0.011371874999999997 0.09375
vt 0.06629062499999999 0.09375
vt 0.0776625 0.15625
vt 0.363165625 0.32338556657395756
vt 0.3222780442484289 0.2867212127429374
vt 0.390625 0.2516324415739576
vt 0.675665625 0.5203644334260424
vt 0.7305843750000001 0.5203644334260424
vt 0.703125 0.5921175584260424
vt 0.300665625 1
vt 0.28929375 0.9375
vt 0.36695625 0.9375
vt 0.355584375 1
vt 0.72679375 1
vt 0.738165625 0.9375
vt 0.793084375 0.9375
vt 0.80445625 1
vt 0.418084375 0.32338556657395756
vt 0.363165625 0.32338556657395756
vt 0.390625 0.2516324415739576
vt 0.7305843750000001 0.5203644334260424
vt 0.7714719557515711 0.5570287872570626
vt 0.703125 0.5921175584260424
vt 0.152459375 0.25
vt 0.1410875 0.1875
vt 0.21875 0.1875
vt 0.207378125 0.25
vt 0.8598375 1
vt 0.871209375 0.9375
vt 0.926128125 0.9375
vt 0.9375 1
vt 0.4589719557515711 0.2867212127429374
vt 0.418084375 0.32338556657395756
vt 0.390625 0.2516324415739576
vt 0.7714719557515711 0.5570287872570626
vt 0.7774356642822643 0.6116227730258581
vt 0.703125 0.5921175584260424
vt 0.738165625 0.46875
vt 0.72679375 0.40625
vt 0.80445625 0.40625
vt 0.793084375 0.46875
vt 0.72679375 0.28125
vt 0.738165625 0.21875
vt 0.793084375 0.21875
vt 0.80445625 0.28125
vt 0.46493566428226424 0.2321272269741419
vt 0.4589719557515711 0.2867212127429374
vt 0.390625 0.2516324415739576
vt 0.7774356642822643 0.6116227730258581
vt 0.7454281696261541 0.65625
vt 0.703125 0.5921175584260424
vt 0.823871875 0.625
vt 0.8125 0.5625
vt 0.8901625 0.5625
vt 0.8787906249999999 0.625
vt 0.84375 0.90625
vt 0.855121875 0.84375
vt 0.9100406249999999 0.84375
vt 0.9214125 0.90625
vt 0.43292816962615405 0.1875
vt 0.46493566428226424 0.2321272269741419
vt 0.39062499999999994 0.2516324415739576
vt 0.1306044255110096 0.09905081941867677
vt 0.1818955744889904 0.0794220869562614
vt 0.1818955744889904 0.15625
vt 0.019415625 0.34375
vt 0.008043750000000002 0.28125
vt 0.08570625 0.28125
vt 0.074334375 0.34375
vt 0.72679375 0.90625
vt 0.738165625 0.84375
vt 0.793084375 0.84375
vt 0.80445625 0.90625
vt 0.2756455744889904 0.11969918058132323
vt 0.2243544255110096 0.1393279130437386
vt 0.2243544255110096 0.0625
vn 0 -1 0
vn 0.6324556270552 0.4472133267384011 0.6324556270552
vn 0 -1 0
vn 0.8944271909999161 0.44721359549995804 0
vn 0 -1 0
vn 0.6324556270552 0.4472133267384011 -0.6324556270552
vn 0 -1 0
vn 0 0.44721359549995804 -0.8944271909999161
vn 0 -1 0
vn -0.6324556270552 0.4472133267384011 -0.6324556270552
vn 0 -1 0
vn -0.8944271909999161 0.44721359549995804 0
vn 0 -1 0
vn -0.6324556270552 0.4472133267384011 0.6324556270552
vn 0 -1 0
vn 0 0.44721359549995804 0.8944271909999161
vn 0.27059814038123636 0.9238794796099942 0.27059814038123636
vn 0.6532815198450491 0.38268330465005357 0.653281519845049
vn 0.6532815198450489 -0.3826833046500537 0.653281519845049
vn 0.27059814038123653 -0.923879479609994 0.27059814038123653
vn 0.3826836129813885 0.9238794576975458 0
vn 0.9238794576975456 0.3826836129813886 0
vn 0.9238794576975456 -0.3826836129813888 0
vn 0.38268361298138875 -0.9238794576975455 0
vn 0.27059814038123636 0.9238794796099942 -0.27059814038123636
vn 0.653281519845049 0.38268330465005357 -0.6532815198450491
vn 0.653281519845049 -0.3826833046500537 -0.6532815198450489
vn 0.27059814038123653 -0.923879479609994 -0.27059814038123653
vn 0 0.9238794576975458 -0.3826836129813885
vn 0 0.3826836129813886 -0.9238794576975456
vn 0 -0.3826836129813888 -0.9238794576975456
vn 0 -0.9238794576975455 -0.38268361298138875
vn -0.27059814038123636 0.9238794796099942 -0.27059814038123636
vn -0.6532815198450491 0.38268330465005357 -0.653281519845049
vn -0.6532815198450489 -0.3826833046500537 -0.653281519845049
vn -0.27059814038123653 -0.923879479609994 -0.27059814038123653
vn -0.3826836129813885 0.9238794576975458 0
vn -0.9238794576975456 0.3826836129813886 0
vn -0.9238794576975456 -0.3826836129813888 0
vn -0.38268361298138875 -0.9238794576975455 0
vn -0.27059814038123636 0.9238794796099942 0.27059814038123636
vn -0.653281519845049 0.38268330465005357 0.6532815198450491
vn -0.653281519845049 -0.3826833046500537 0.6532815198450489
vn -0.27059814038123653 -0.923879479609994 0.27059814038123653
vn 0 0.9238794576975458 0.3826836129813885
vn 0 0.3826836129813886 0.9238794576975456
vn 0 -0.3826836129813888 0.9238794576975456
vn 0 -0.9238794576975455 0.38268361298138875
usemtl m_e2471ff7-7faa-e972-3e3d-8740b9a5f156
f 4/1/1 3/2/1 1/3/1
f 3/4/2 4/5/2 2/6/2
f 5/7/3 4/8/3 1/9/3
f 4/10/4 5/11/4 2/12/4
f 6/13/5 5/14/5 1/15/5
f 5/16/6 6/17/6 2/18/6
f 7/19/7 6/20/7 1/21/7
f 6/22/8 7/23/8 2/24/8
f 8/25/9 7/26/9 1/27/9
f 7/28/10 8/29/10 2/30/10
f 9/31/11 8/32/11 1/33/11
f 8/34/12 9/35/12 2/36/12
f 10/37/13 9/38/13 1/39/13
f 9/40/14 10/41/14 2/42/14
f 3/43/15 10/44/15 1/45/15
f 10/46/16 3/47/16 2/48/16
f 13/49/17 16/50/17 12/51/17
f 13/52/18 14/53/18 17/54/18 16/55/18
f 14/56/19 15/57/19 18/58/19 17/59/19
f 18/60/20 15/61/20 11/62/20
f 16/63/21 19/64/21 12/65/21
f 16/66/22 17/67/22 20/68/22 19/69/22
f 17/70/23 18/71/23 21/72/23 20/73/23
f 21/74/24 18/75/24 11/76/24
f 19/77/25 22/78/25 12/79/25
f 19/80/26 20/81/26 23/82/26 22/83/26
f 20/84/27 21/85/27 24/86/27 23/87/27
f 24/88/28 21/89/28 11/90/28
f 22/91/29 25/92/29 12/93/29
f 22/94/30 23/95/30 26/96/30 25/97/30
f 23/98/31 24/99/31 27/100/31 26/101/31
f 27/102/32 24/103/32 11/104/32
f 25/105/33 28/106/33 12/107/33
f 25/108/34 26/109/34 29/110/34 28/111/34
f 26/112/35 27/113/35 30/114/35 29/115/35
f 30/116/36 27/117/36 11/118/36
f 28/119/37 31/120/37 12/121/37
f 28/122/38 29/123/38 32/124/38 31/125/38
f 29/126/39 30/127/39 33/128/39 32/129/39
f 33/130/40 30/131/40 11/132/40
f 31/133/41 34/134/41 12/135/41
f 31/136/42 32/137/42 35/138/42 34/139/42
f 32/140/43 33/141/43 36/142/43 35/143/43
f 36/144/44 33/145/44 11/146/44
f 34/147/45 13/148/45 12/149/45
f 34/150/46 35/151/46 14/152/46 13/153/46
f 35/154/47 36/155/47 15/156/47 14/157/47
f 15/158/48 36/159/48 11/160/48