# Made in Blockbench 4.12.4
mtllib torus-test.mtl

o torus
v 0.13397459621556132 0.12940952255126037 0.49999999999999994
v 0.15765818258824957 0.09150635094610966 0.5883883476483184
v 0.16746824526945167 7.924047878579412e-18 0.625
v 0.1576581825882496 -0.09150635094610965 0.5883883476483185
v 0.13397459621556132 -0.12940952255126037 0.49999999999999994
v 0.11029100984287309 -0.09150635094610968 0.4116116523516815
v 0.100480947161671 -2.3772143635738232e-17 0.375
v 0.11029100984287307 0.09150635094610964 0.4116116523516815
v 0.3660254037844386 0.12940952255126037 0.36602540378443865
v 0.4307301650600687 0.09150635094610966 0.4307301650600688
v 0.45753175473054825 7.924047878579412e-18 0.4575317547305483
v 0.4307301650600688 -0.09150635094610965 0.4307301650600689
v 0.3660254037844386 -0.12940952255126037 0.36602540378443865
v 0.3013206425088084 -0.09150635094610968 0.30132064250880847
v 0.27451905283832895 -2.3772143635738232e-17 0.274519052838329
v 0.30132064250880836 0.09150635094610964 0.3013206425088084
v 0.49999999999999994 0.12940952255126037 0.13397459621556132
v 0.5883883476483184 0.09150635094610966 0.15765818258824957
v 0.625 7.924047878579412e-18 0.16746824526945167
v 0.5883883476483185 -0.09150635094610965 0.1576581825882496
v 0.49999999999999994 -0.12940952255126037 0.13397459621556132
v 0.4116116523516815 -0.09150635094610968 0.11029100984287309
v 0.375 -2.3772143635738232e-17 0.100480947161671
v 0.4116116523516815 0.09150635094610964 0.11029100984287307
v 0.49999999999999994 0.12940952255126037 -0.13397459621556138
v 0.5883883476483184 0.09150635094610966 -0.15765818258824962
v 0.625 7.924047878579412e-18 -0.16746824526945173
v 0.5883883476483185 -0.09150635094610965 -0.15765818258824965
v 0.49999999999999994 -0.12940952255126037 -0.13397459621556138
v 0.4116116523516815 -0.09150635094610968 -0.11029100984287313
v 0.375 -2.3772143635738232e-17 -0.10048094716167104
v 0.4116116523516815 0.09150635094610964 -0.11029100984287311
v 0.36602540378443865 0.12940952255126037 -0.3660254037844386
v 0.4307301650600688 0.09150635094610966 -0.4307301650600687
v 0.4575317547305483 7.924047878579412e-18 -0.45753175473054825
v 0.4307301650600689 -0.09150635094610965 -0.4307301650600688
v 0.36602540378443865 -0.12940952255126037 -0.3660254037844386
v 0.30132064250880847 -0.09150635094610968 -0.3013206425088084
v 0.274519052838329 -2.3772143635738232e-17 -0.27451905283832895
v 0.3013206425088084 0.09150635094610964 -0.30132064250880836
v 0.1339745962155615 0.12940952255126037 -0.4999999999999999
v 0.15765818258824973 0.09150635094610966 -0.5883883476483183
v 0.16746824526945184 7.924047878579412e-18 -0.6249999999999999
v 0.15765818258824976 -0.09150635094610965 -0.5883883476483184
v 0.1339745962155615 -0.12940952255126037 -0.4999999999999999
v 0.1102910098428732 -0.09150635094610968 -0.4116116523516815
v 0.10048094716167111 -2.3772143635738232e-17 -0.37499999999999994
v 0.11029100984287318 0.09150635094610964 -0.41161165235168146
v -0.13397459621556113 0.12940952255126037 -0.5
v -0.15765818258824932 0.09150635094610966 -0.5883883476483184
v -0.16746824526945142 7.924047878579412e-18 -0.625
v -0.15765818258824935 -0.09150635094610965 -0.5883883476483185
v -0.13397459621556113 -0.12940952255126037 -0.5
v -0.11029100984287292 -0.09150635094610968 -0.41161165235168157
v -0.10048094716167084 -2.3772143635738232e-17 -0.375
v -0.1102910098428729 0.09150635094610964 -0.4116116523516815
v -0.3660254037844386 0.12940952255126037 -0.3660254037844387
v -0.4307301650600687 0.09150635094610966 -0.43073016506006884
v -0.45753175473054825 7.924047878579412e-18 -0.45753175473054836
v -0.4307301650600688 -0.09150635094610965 -0.43073016506006895
v -0.3660254037844386 -0.12940952255126037 -0.3660254037844387
v -0.3013206425088084 -0.09150635094610968 -0.3013206425088085
v -0.27451905283832895 -2.3772143635738232e-17 -0.274519052838329
v -0.30132064250880836 0.09150635094610964 -0.30132064250880847
v -0.49999999999999994 0.12940952255126037 -0.13397459621556126
v -0.5883883476483184 0.09150635094610966 -0.15765818258824948
v -0.625 7.924047878579412e-18 -0.1674682452694516
v -0.5883883476483185 -0.09150635094610965 -0.1576581825882495
v -0.49999999999999994 -0.12940952255126037 -0.13397459621556126
v -0.4116116523516815 -0.09150635094610968 -0.11029100984287304
v -0.375 -2.3772143635738232e-17 -0.10048094716167096
v -0.4116116523516815 0.09150635094610964 -0.11029100984287302
v -0.5 0.12940952255126037 0.1339745962155611
v -0.5883883476483184 0.09150635094610966 0.1576581825882493
v -0.625 7.924047878579412e-18 0.16746824526945137
v -0.5883883476483185 -0.09150635094610965 0.15765818258824932
v -0.5 -0.12940952255126037 0.1339745962155611
v -0.41161165235168157 -0.09150635094610968 0.11029100984287289
v -0.375 -2.3772143635738232e-17 0.10048094716167083
v -0.4116116523516815 0.09150635094610964 0.11029100984287288
v -0.3660254037844387 0.12940952255126037 0.36602540378443854
v -0.43073016506006884 0.09150635094610966 0.43073016506006867
v -0.45753175473054836 7.924047878579412e-18 0.45753175473054813
v -0.43073016506006895 -0.09150635094610965 0.4307301650600687
v -0.3660254037844387 -0.12940952255126037 0.36602540378443854
v -0.3013206425088085 -0.09150635094610968 0.30132064250880836
v -0.274519052838329 -2.3772143635738232e-17 0.2745190528383289
v -0.30132064250880847 0.09150635094610964 0.3013206425088083
v -0.1339745962155613 0.12940952255126037 0.49999999999999994
v -0.1576581825882495 0.09150635094610966 0.5883883476483184
v -0.16746824526945162 7.924047878579412e-18 0.625
v -0.15765818258824957 -0.09150635094610965 0.5883883476483185
v -0.1339745962155613 -0.12940952255126037 0.49999999999999994
v -0.11029100984287306 -0.09150635094610968 0.4116116523516815
v -0.10048094716167097 -2.3772143635738232e-17 0.375
v -0.11029100984287304 0.09150635094610964 0.4116116523516815
vt 0.023681249999999987 0.9999999999999973
vt 0 0.9038249999999973
vt 0.3153125 0.9038249999999973
vt 0.29163125 0.9999999999999973
vt 0.009812500000000002 1
vt 0 0.90144375
vt 0.3349375 0.90144375
vt 0.325125 1
vt 0 1
vt 0.009812500000000002 0.90144375
vt 0.325125 0.90144375
vt 0.3349375 1
vt 0 1
vt 0.023681249999999987 0.903825
vt 0.29163125 0.903825
vt 0.3153125 1
vt 0.26795 0.9038312500000001
vt 0.24426875 1
vt 0.023681250000000015 1
vt 0 0.9038312500000001
vt 0.2205875 0.9014375
vt 0.210775 1
vt 0.009812500000000002 1
vt 0 0.9014375
vt 0.210775 0.9014375
vt 0.2205875 1
vt 0 1
vt 0.009812500000000002 0.9014375
vt 0.24426875 0.9038312500000001
vt 0.26795 1
vt 0 1
vt 0.023681250000000015 0.9038312500000001
vt 0.023681249999999987 0.9999999999999973
vt 0 0.9038249999999973
vt 0.3153125 0.9038249999999973
vt 0.29163125 0.9999999999999973
vt 0.009812500000000002 1
vt 0 0.90144375
vt 0.3349375 0.90144375
vt 0.325125 1
vt 0 1
vt 0.009812500000000002 0.90144375
vt 0.325125 0.90144375
vt 0.3349375 1
vt 0 1
vt 0.023681249999999987 0.903825
vt 0.29163125 0.903825
vt 0.3153125 1
vt 0.26795 0.9038312500000001
vt 0.24426875 1
vt 0.023681250000000015 1
vt 0 0.9038312500000001
vt 0.2205875 0.9014375
vt 0.210775 1
vt 0.009812500000000002 1
vt 0 0.9014375
vt 0.210775 0.9014375
vt 0.2205875 1
vt 0 1
vt 0.009812500000000002 0.9014375
vt 0.24426875 0.9038312500000001
vt 0.26795 1
vt 0 1
vt 0.023681250000000015 0.9038312500000001
vt 0.023681249999999987 0.9999999999999973
vt 0 0.9038249999999973
vt 0.3153125 0.9038249999999973
vt 0.29163125 0.9999999999999973
vt 0.009812500000000002 1
vt 0 0.90144375
vt 0.3349375 0.90144375
vt 0.325125 1
vt 0 1
vt 0.009812500000000002 0.90144375
vt 0.325125 0.90144375
vt 0.3349375 1
vt 0 1
vt 0.023681249999999987 0.903825
vt 0.29163125 0.903825
vt 0.3153125 1
vt 0.26795 0.9038312500000001
vt 0.24426875 1
vt 0.023681250000000015 1
vt 0 0.9038312500000001
vt 0.2205875 0.9014375
vt 0.210775 1
vt 0.009812500000000002 1
vt 0 0.9014375
vt 0.210775 0.9014375
vt 0.2205875 1
vt 0 1
vt 0.009812500000000002 0.9014375
vt 0.24426875 0.9038312500000001
vt 0.26795 1
vt 0 1
vt 0.023681250000000015 0.9038312500000001
vt 0.023681249999999987 0.9999999999999973
vt 0 0.9038249999999973
vt 0.3153125 0.9038249999999973
vt 0.29163125 0.9999999999999973
vt 0.009812500000000002 1
vt 0 0.90144375
vt 0.3349375 0.90144375
vt 0.325125 1
vt 0 1
vt 0.009812500000000002 0.90144375
vt 0.325125 0.90144375
vt 0.3349375 1
vt 0 1
vt 0.023681249999999987 0.903825
vt 0.29163125 0.903825
vt 0.3153125 1
vt 0.26795 0.9038312500000001
vt 0.24426875 1
vt 0.023681250000000015 1
vt 0 0.9038312500000001
vt 0.2205875 0.9014375
vt 0.210775 1
vt 0.009812500000000002 1
vt 0 0.9014375
vt 0.210775 0.9014375
vt 0.2205875 1
vt 0 1
vt 0.009812500000000002 0.9014375
vt 0.24426875 0.9038312500000001
vt 0.26795 1
vt 0 1
vt 0.023681250000000015 0.9038312500000001
vt 0.023681249999999987 0.9999999999999973
vt 0 0.9038249999999973
vt 0.3153125 0.9038249999999973
vt 0.29163125 0.9999999999999973
vt 0.009812500000000002 1
vt 0 0.90144375
vt 0.3349375 0.90144375
vt 0.325125 1
vt 0 1
vt 0.009812500000000002 0.90144375
vt 0.325125 0.90144375
vt 0.3349375 1
vt 0 1
vt 0.023681249999999987 0.903825
vt 0.29163125 0.903825
vt 0.3153125 1
vt 0.26795 0.9038312500000001
vt 0.24426875 1
vt 0.023681250000000015 1
vt 0 0.9038312500000001
vt 0.2205875 0.9014375
vt 0.210775 1
vt 0.009812500000000002 1
vt 0 0.9014375
vt 0.210775 0.9014375
vt 0.2205875 1
vt 0 1
vt 0.009812500000000002 0.9014375
vt 0.24426875 0.9038312500000001
vt 0.26795 1
vt 0 1
vt 0.023681250000000015 0.9038312500000001
vt 0.023681249999999987 0.9999999999999973
vt 0 0.9038249999999973
vt 0.3153125 0.9038249999999973
vt 0.29163125 0.9999999999999973
vt 0.009812500000000002 1
vt 0 0.90144375
vt 0.3349375 0.90144375
vt 0.325125 1
vt 0 1
vt 0.009812500000000002 0.90144375
vt 0.325125 0.90144375
vt 0.3349375 1
vt 0 1
vt 0.023681249999999987 0.903825
vt 0.29163125 0.903825
vt 0.3153125 1
vt 0.26795 0.9038312500000001
vt 0.24426875 1
vt 0.023681250000000015 1
vt 0 0.9038312500000001
vt 0.2205875 0.9014375
vt 0.210775 1
vt 0.009812500000000002 1
vt 0 0.9014375
vt 0.210775 0.9014375
vt 0.2205875 1
vt 0 1
vt 0.009812500000000002 0.9014375
vt 0.24426875 0.9038312500000001
vt 0.26795 1
vt 0 1
vt 0.023681250000000015 0.9038312500000001
vt 0.023681249999999987 0.9999999999999973
vt 0 0.9038249999999973
vt 0.3153125 0.9038249999999973
vt 0.29163125 0.9999999999999973
vt 0.009812500000000002 1
vt 0 0.90144375
vt 0.3349375 0.90144375
vt 0.325125 1
vt 0 1
vt 0.009812500000000002 0.90144375
vt 0.325125 0.90144375
vt 0.3349375 1
vt 0 1
vt 0.023681249999999987 0.903825
vt 0.29163125 0.903825
vt 0.3153125 1
vt 0.26795 0.9038312500000001
vt 0.24426875 1
vt 0.023681250000000015 1
vt 0 0.9038312500000001
vt 0.2205875 0.9014375
vt 0.210775 1
vt 0.009812500000000002 1
vt 0 0.9014375
vt 0.210775 0.9014375
vt 0.2205875 1
vt 0 1
vt 0.009812500000000002 0.9014375
vt 0.24426875 0.9038312500000001
vt 0.26795 1
vt 0 1
vt 0.023681250000000015 0.9038312500000001
vt 0.023681249999999987 0.9999999999999973
vt 0 0.9038249999999973
vt 0.3153125 0.9038249999999973
vt 0.29163125 0.9999999999999973
vt 0.009812500000000002 1
vt 0 0.90144375
vt 0.3349375 0.90144375
vt 0.325125 1
vt 0 1
vt 0.009812500000000002 0.90144375
vt 0.325125 0.90144375
vt 0.3349375 1
vt 0 1
vt 0.023681249999999987 0.903825
vt 0.29163125 0.903825
vt 0.3153125 1
vt 0.26795 0.9038312500000001
vt 0.24426875 1
vt 0.023681250000000015 1
vt 0 0.9038312500000001
vt 0.2205875 0.9014375
vt 0.210775 1
vt 0.009812500000000002 1
vt 0 0.9014375
vt 0.210775 0.9014375
vt 0.2205875 1
vt 0 1
vt 0.009812500000000002 0.9014375
vt 0.24426875 0.9038312500000001
vt 0.26795 1
vt 0 1
vt 0.023681250000000015 0.9038312500000001
vt 0.023681249999999987 0.9999999999999973
vt 0 0.9038249999999973
vt 0.3153125 0.9038249999999973
vt 0.29163125 0.9999999999999973
vt 0.009812500000000002 1
vt 0 0.90144375
vt 0.3349375 0.90144375
vt 0.325125 1
vt 0 1
vt 0.009812500000000002 0.90144375
vt 0.325125 0.90144375
vt 0.3349375 1
vt 0 1
vt 0.023681249999999987 0.903825
vt 0.29163125 0.903825
vt 0.3153125 1
vt 0.26795 0.9038312500000001
vt 0.24426875 1
vt 0.023681250000000015 1
vt 0 0.9038312500000001
vt 0.2205875 0.9014375
vt 0.210775 1
vt 0.009812500000000002 1
vt 0 0.9014375
vt 0.210775 0.9014375
vt 0.2205875 1
vt 0 1
vt 0.009812500000000002 0.9014375
vt 0.24426875 0.9038312500000001
vt 0.26795 1
vt 0 1
vt 0.023681250000000015 0.9038312500000001
vt 0.023681249999999987 0.9999999999999973
vt 0 0.9038249999999973
vt 0.3153125 0.9038249999999973
vt 0.29163125 0.9999999999999973
vt 0.009812500000000002 1
vt 0 0.90144375
vt 0.3349375 0.90144375
vt 0.325125 1
vt 0 1
vt 0.009812500000000002 0.90144375
vt 0.325125 0.90144375
vt 0.3349375 1
vt 0 1
vt 0.023681249999999987 0.903825
vt 0.29163125 0.903825
vt 0.3153125 1
vt 0.26795 0.9038312500000001
vt 0.24426875 1
vt 0.023681250000000015 1
vt 0 0.9038312500000001
vt 0.2205875 0.9014375
vt 0.210775 1
vt 0.009812500000000002 1
vt 0 0.9014375
vt 0.210775 0.9014375
vt 0.2205875 1
vt 0 1
vt 0.009812500000000002 0.9014375
vt 0.24426875 0.9038312500000001
vt 0.26795 1
vt 0 1
vt 0.023681250000000015 0.9038312500000001
vt 0.023681249999999987 0.9999999999999973
vt 0 0.9038249999999973
vt 0.3153125 0.9038249999999973
vt 0.29163125 0.9999999999999973
vt 0.009812500000000002 1
vt 0 0.90144375
vt 0.3349375 0.90144375
vt 0.325125 1
vt 0 1
vt 0.009812500000000002 0.90144375
vt 0.325125 0.90144375
vt 0.3349375 1
vt 0 1
vt 0.023681249999999987 0.903825
vt 0.29163125 0.903825
vt 0.3153125 1
vt 0.26795 0.9038312500000001
vt 0.24426875 1
vt 0.023681250000000015 1
vt 0 0.9038312500000001
vt 0.2205875 0.9014375
vt 0.210775 1
vt 0.009812500000000002 1
vt 0 0.9014375
vt 0.210775 0.9014375
vt 0.2205875 1
vt 0 1
vt 0.009812500000000002 0.9014375
vt 0.24426875 0.9038312500000001
vt 0.26795 1
vt 0 1
vt 0.023681250000000015 0.9038312500000001
vt 0.023681249999999987 0.9999999999999973
vt 0 0.9038249999999973
vt 0.3153125 0.9038249999999973
vt 0.29163125 0.9999999999999973
vt 0.009812500000000002 1
vt 0 0.90144375
vt 0.3349375 0.90144375
vt 0.325125 1
vt 0 1
vt 0.009812500000000002 0.90144375
vt 0.325125 0.90144375
vt 0.3349375 1
vt 0 1
vt 0.023681249999999987 0.903825
vt 0.29163125 0.903825
vt 0.3153125 1
vt 0.26795 0.9038312500000001
vt 0.24426875 1
vt 0.023681250000000015 1
vt 0 0.9038312500000001
vt 0.2205875 0.9014375
vt 0.210775 1
vt 0.009812500000000002 1
vt 0 0.9014375
vt 0.210775 0.9014375
vt 0.2205875 1
vt 0 1
vt 0.009812500000000002 0.9014375
vt 0.24426875 0.9038312500000001
vt 0.26795 1
vt 0 1
vt 0.023681250000000015 0.9038312500000001
vn 0.19705825599715987 0.919060484937434 0.34131491143799525
vn 0.46422240369631934 0.3714703751655659 0.8040567892137753
vn 0.4642224036963196 -0.3714703751655649 0.8040567892137757
vn 0.19705825599715962 -0.9190604849374342 0.34131491143799497
vn -0.19705825599715973 -0.9190604849374341 -0.3413149114379952
vn -0.46422240369631945 -0.37147037516556497 -0.8040567892137755
vn -0.46422240369631956 0.3714703751655649 -0.8040567892137755
vn -0.19705825599715993 0.9190604849374341 -0.3413149114379954
vn 0.3413149114379954 0.9190604849374341 0.1970582559971601
vn 0.8040567892137751 0.37147037516556597 0.46422240369631945
vn 0.8040567892137757 -0.37147037516556497 0.4642224036963197
vn 0.34131491143799525 -0.919060484937434 0.1970582559971598
vn -0.34131491143799514 -0.9190604849374341 -0.19705825599715973
vn -0.8040567892137753 -0.37147037516556525 -0.46422240369631945
vn -0.8040567892137755 0.3714703751655645 -0.46422240369631973
vn -0.34131491143799525 0.9190604849374342 -0.19705825599715984
vn 0.39411651199431963 0.919060484937434 0
vn 0.9284448073926386 0.3714703751655659 0
vn 0.928444807392639 -0.37147037516556486 0
vn 0.39411651199431935 -0.9190604849374341 0
vn -0.39411651199431946 -0.9190604849374341 0
vn -0.9284448073926389 -0.3714703751655649 0
vn -0.928444807392639 0.3714703751655649 0
vn -0.3941165119943199 0.919060484937434 0
vn 0.34131491143799525 0.919060484937434 -0.19705825599715987
vn 0.8040567892137751 0.3714703751655659 -0.46422240369631945
vn 0.8040567892137757 -0.3714703751655649 -0.4642224036963196
vn 0.34131491143799497 -0.9190604849374341 -0.19705825599715968
vn -0.34131491143799514 -0.9190604849374341 0.19705825599715976
vn -0.8040567892137755 -0.371470375165565 0.4642224036963195
vn -0.8040567892137754 0.37147037516556486 0.4642224036963197
vn -0.3413149114379954 0.9190604849374341 0.19705825599715993
vn 0.19705825599715998 0.9190604849374339 -0.3413149114379954
vn 0.46422240369631934 0.37147037516556597 -0.8040567892137751
vn 0.4642224036963195 -0.37147037516556497 -0.8040567892137754
vn 0.1970582559971599 -0.9190604849374341 -0.34131491143799525
vn -0.19705825599715981 -0.9190604849374341 0.341314911437995
vn -0.4642224036963195 -0.3714703751655653 0.8040567892137753
vn -0.46422240369631973 0.37147037516556464 0.8040567892137755
vn -0.1970582559971599 0.9190604849374342 0.34131491143799525
vn 1.430121157510719e-16 0.9190604849374341 -0.39411651199431996
vn 3.1529994522758226e-16 0.37147037516556597 -0.9284448073926387
vn 3.2096408851128566e-16 -0.3714703751655649 -0.9284448073926389
vn 1.514639924648336e-16 -0.9190604849374342 -0.3941165119943196
vn -1.0221608401961396e-16 -0.9190604849374341 0.39411651199431974
vn -2.6274995435631863e-16 -0.37147037516556547 0.9284448073926389
vn -2.393791145626613e-16 0.37147037516556486 0.928444807392639
vn -1.6829332496092633e-16 0.9190604849374341 0.39411651199431985
vn -0.1970582559971598 0.9190604849374339 -0.3413149114379955
vn -0.46422240369631895 0.37147037516556597 -0.8040567892137753
vn -0.46422240369631906 -0.3714703751655649 -0.8040567892137758
vn -0.19705825599715965 -0.9190604849374342 -0.34131491143799536
vn 0.19705825599715965 -0.9190604849374342 0.3413149114379953
vn 0.4642224036963191 -0.3714703751655654 0.8040567892137758
vn 0.4642224036963192 0.37147037516556486 0.8040567892137758
vn 0.19705825599715973 0.9190604849374341 0.34131491143799547
vn -0.3413149114379954 0.9190604849374339 -0.19705825599715995
vn -0.8040567892137752 0.37147037516556597 -0.46422240369631923
vn -0.8040567892137757 -0.37147037516556497 -0.4642224036963195
vn -0.34131491143799536 -0.919060484937434 -0.19705825599715973
vn 0.3413149114379952 -0.9190604849374342 0.1970582559971597
vn 0.8040567892137754 -0.3714703751655655 0.46422240369631934
vn 0.8040567892137758 0.3714703751655648 0.4642224036963196
vn 0.3413149114379953 0.9190604849374341 0.19705825599715973
vn -0.39411651199431963 0.919060484937434 0
vn -0.9284448073926387 0.37147037516556597 0
vn -0.928444807392639 -0.3714703751655649 0
vn -0.3941165119943194 -0.9190604849374343 -8.414666248046318e-17
vn 0.3941165119943196 -0.9190604849374342 1.02216084019614e-16
vn 0.928444807392639 -0.3714703751655649 0
vn 0.9284448073926391 0.3714703751655649 0
vn 0.39411651199431996 0.9190604849374341 8.414666248046325e-17
vn -0.3413149114379955 0.9190604849374339 0.1970582559971598
vn -0.8040567892137755 0.3714703751655658 0.4642224036963191
vn -0.804056789213776 -0.3714703751655648 0.46422240369631923
vn -0.3413149114379953 -0.919060484937434 0.19705825599715962
vn 0.34131491143799525 -0.9190604849374342 -0.19705825599715965
vn 0.8040567892137758 -0.3714703751655653 -0.4642224036963191
vn 0.8040567892137758 0.3714703751655648 -0.4642224036963192
vn 0.3413149114379954 0.919060484937434 -0.19705825599715973
vn -0.19705825599716 0.9190604849374339 0.3413149114379954
vn -0.4642224036963196 0.3714703751655655 0.8040567892137752
vn -0.4642224036963198 -0.3714703751655646 0.8040567892137758
vn -0.19705825599715984 -0.9190604849374342 0.34131491143799525
vn 0.1970582559971598 -0.9190604849374342 -0.34131491143799514
vn 0.46422240369631956 -0.3714703751655655 -0.8040567892137752
vn 0.4642224036963197 0.37147037516556486 -0.8040567892137755
vn 0.19705825599715981 0.9190604849374341 -0.3413149114379952
vn 0 0.919060484937434 0.39411651199431963
vn 0 0.3714703751655659 0.9284448073926387
vn 0 -0.3714703751655649 0.928444807392639
vn 0 -0.9190604849374341 0.39411651199431935
vn 0 -0.9190604849374341 -0.39411651199431946
vn 0 -0.3714703751655649 -0.928444807392639
vn 0 0.37147037516556486 -0.928444807392639
vn 0 0.919060484937434 -0.39411651199432
usemtl none
f 1/1/1 2/2/1 10/3/1 9/4/1
f 2/5/2 3/6/2 11/7/2 10/8/2
f 3/9/3 4/10/3 12/11/3 11/12/3
f 4/13/4 5/14/4 13/15/4 12/16/4
f 5/17/5 6/18/5 14/19/5 13/20/5
f 6/21/6 7/22/6 15/23/6 14/24/6
f 7/25/7 8/26/7 16/27/7 15/28/7
f 8/29/8 1/30/8 9/31/8 16/32/8
f 9/33/9 10/34/9 18/35/9 17/36/9
f 10/37/10 11/38/10 19/39/10 18/40/10
f 11/41/11 12/42/11 20/43/11 19/44/11
f 12/45/12 13/46/12 21/47/12 20/48/12
f 13/49/13 14/50/13 22/51/13 21/52/13
f 14/53/14 15/54/14 23/55/14 22/56/14
f 15/57/15 16/58/15 24/59/15 23/60/15
f 16/61/16 9/62/16 17/63/16 24/64/16
f 17/65/17 18/66/17 26/67/17 25/68/17
f 18/69/18 19/70/18 27/71/18 26/72/18
f 19/73/19 20/74/19 28/75/19 27/76/19
f 20/77/20 21/78/20 29/79/20 28/80/20
f 21/81/21 22/82/21 30/83/21 29/84/21
f 22/85/22 23/86/22 31/87/22 30/88/22
f 23/89/23 24/90/23 32/91/23 31/92/23
f 24/93/24 17/94/24 25/95/24 32/96/24
f 25/97/25 26/98/25 34/99/25 33/100/25
f 26/101/26 27/102/26 35/103/26 34/104/26
f 27/105/27 28/106/27 36/107/27 35/108/27
f 28/109/28 29/110/28 37/111/28 36/112/28
f 29/113/29 30/114/29 38/115/29 37/116/29
f 30/117/30 31/118/30 39/119/30 38/120/30
f 31/121/31 32/122/31 40/123/31 39/124/31
f 32/125/32 25/126/32 33/127/32 40/128/32
f 33/129/33 34/130/33 42/131/33 41/132/33
f 34/133/34 35/134/34 43/135/34 42/136/34
f 35/137/35 36/138/35 44/139/35 43/140/35
f 36/141/36 37/142/36 45/143/36 44/144/36
f 37/145/37 38/146/37 46/147/37 45/148/37
f 38/149/38 39/150/38 47/151/38 46/152/38
f 39/153/39 40/154/39 48/155/39 47/156/39
f 40/157/40 33/158/40 41/159/40 48/160/40
f 41/161/41 42/162/41 50/163/41 49/164/41
f 42/165/42 43/166/42 51/167/42 50/168/42
f 43/169/43 44/170/43 52/171/43 51/172/43
f 44/173/44 45/174/44 53/175/44 52/176/44
f 45/177/45 46/178/45 54/179/45 53/180/45
f 46/181/46 47/182/46 55/183/46 54/184/46
f 47/185/47 48/186/47 56/187/47 55/188/47
f 48/189/48 41/190/48 49/191/48 56/192/48
f 49/193/49 50/194/49 58/195/49 57/196/49
f 50/197/50 51/198/50 59/199/50 58/200/50
f 51/201/51 52/202/51 60/203/51 59/204/51
f 52/205/52 53/206/52 61/207/52 60/208/52
f 53/209/53 54/210/53 62/211/53 61/212/53
f 54/213/54 55/214/54 63/215/54 62/216/54
f 55/217/55 56/218/55 64/219/55 63/220/55
f 56/221/56 49/222/56 57/223/56 64/224/56
f 57/225/57 58/226/57 66/227/57 65/228/57
f 58/229/58 59/230/58 67/231/58 66/232/58
f 59/233/59 60/234/59 68/235/59 67/236/59
f 60/237/60 61/238/60 69/239/60 68/240/60
f 61/241/61 62/242/61 70/243/61 69/244/61
f 62/245/62 63/246/62 71/247/62 70/248/62
f 63/249/63 64/250/63 72/251/63 71/252/63
f 64/253/64 57/254/64 65/255/64 72/256/64
f 65/257/65 66/258/65 74/259/65 73/260/65
f 66/261/66 67/262/66 75/263/66 74/264/66
f 67/265/67 68/266/67 76/267/67 75/268/67
f 68/269/68 69/270/68 77/271/68 76/272/68
f 69/273/69 70/274/69 78/275/69 77/276/69
f 70/277/70 71/278/70 79/279/70 78/280/70
f 71/281/71 72/282/71 80/283/71 79/284/71
f 72/285/72 65/286/72 73/287/72 80/288/72
f 73/289/73 74/290/73 82/291/73 81/292/73
f 74/293/74 75/294/74 83/295/74 82/296/74
f 75/297/75 76/298/75 84/299/75 83/300/75
f 76/301/76 77/302/76 85/303/76 84/304/76
f 77/305/77 78/306/77 86/307/77 85/308/77
f 78/309/78 79/310/78 87/311/78 86/312/78
f 79/313/79 80/314/79 88/315/79 87/316/79
f 80/317/80 73/318/80 81/319/80 88/320/80
f 81/321/81 82/322/81 90/323/81 89/324/81
f 82/325/82 83/326/82 91/327/82 90/328/82
f 83/329/83 84/330/83 92/331/83 91/332/83
f 84/333/84 85/334/84 93/335/84 92/336/84
f 85/337/85 86/338/85 94/339/85 93/340/85
f 86/341/86 87/342/86 95/343/86 94/344/86
f 87/345/87 88/346/87 96/347/87 95/348/87
f 88/349/88 81/350/88 89/351/88 96/352/88
f 89/353/89 90/354/89 2/355/89 1/356/89
f 90/357/90 91/358/90 3/359/90 2/360/90
f 91/361/91 92/362/91 4/363/91 3/364/91
f 92/365/92 93/366/92 5/367/92 4/368/92
f 93/369/93 94/370/93 6/371/93 5/372/93
f 94/373/94 95/374/94 7/375/94 6/376/94
f 95/377/95 96/378/95 8/379/95 7/380/95
f 96/381/96 89/382/96 1/383/96 8/384/96